<svg width="57" height="9" viewBox="0 0 57 9" fill="none" xmlns="http://www.w3.org/2000/svg">
<g clip-path="url(#clip0_2312_21)">
<path d="M0.684006 8V0.272H2.31601L4.58401 4.916L6.85201 0.272H8.47201V8H6.85201V2.972L5.05201 6.668H4.11601L2.30401 2.972V8H0.684006ZM9.83635 8V0.272H11.4563V8H9.83635ZM12.8246 8V0.272H14.2286L17.8886 5.42V0.272H19.5086V8H18.1046L14.4446 2.852V8H12.8246ZM20.8754 8V0.272H24.1154C25.2754 0.272 26.1474 0.572001 26.7314 1.172C27.3234 1.764 27.6194 2.764 27.6194 4.172C27.6194 5.5 27.3274 6.472 26.7434 7.088C26.1674 7.696 25.2914 8 24.1154 8H20.8754ZM22.4954 6.752H23.8874C24.3434 6.752 24.7274 6.684 25.0394 6.548C25.3514 6.404 25.5834 6.148 25.7354 5.78C25.8954 5.404 25.9754 4.868 25.9754 4.172C25.9754 3.476 25.9034 2.944 25.7594 2.576C25.6154 2.208 25.3914 1.956 25.0874 1.82C24.7834 1.684 24.3834 1.616 23.8874 1.616H22.4954V6.752ZM31.1504 8.12C30.6544 8.12 30.1904 8.084 29.7584 8.012C29.3344 7.94 28.9664 7.836 28.6544 7.7V6.272C29.0064 6.416 29.3864 6.532 29.7944 6.62C30.2024 6.708 30.6024 6.752 30.9944 6.752C31.5544 6.752 31.9664 6.7 32.2304 6.596C32.4944 6.492 32.6264 6.256 32.6264 5.888C32.6264 5.656 32.5704 5.472 32.4584 5.336C32.3464 5.2 32.1504 5.08 31.8704 4.976C31.5984 4.864 31.2104 4.74 30.7064 4.604C29.8984 4.38 29.3304 4.1 29.0024 3.764C28.6744 3.428 28.5104 2.964 28.5104 2.372C28.5104 1.66 28.7704 1.112 29.2904 0.728001C29.8104 0.344001 30.5664 0.152 31.5584 0.152C32.0224 0.152 32.4544 0.184001 32.8544 0.248001C33.2544 0.312001 33.5784 0.388001 33.8264 0.476001V1.904C33.1704 1.656 32.4864 1.532 31.7744 1.532C31.2704 1.532 30.8744 1.588 30.5864 1.7C30.2984 1.804 30.1544 2.028 30.1544 2.372C30.1544 2.572 30.2064 2.732 30.3104 2.852C30.4144 2.972 30.5904 3.08 30.8384 3.176C31.0944 3.272 31.4504 3.38 31.9064 3.5C32.5384 3.668 33.0264 3.868 33.3704 4.1C33.7144 4.332 33.9504 4.596 34.0784 4.892C34.2144 5.188 34.2824 5.52 34.2824 5.888C34.2824 6.56 34.0264 7.1 33.5144 7.508C33.0024 7.916 32.2144 8.12 31.1504 8.12ZM37.1535 8V5.144L34.3815 0.272H36.0735L37.9695 3.764L39.8655 0.272H41.5455L38.7735 5.144V8H37.1535ZM42.4379 8V0.272H43.8419L47.5019 5.42V0.272H49.1219V8H47.7179L44.0579 2.852V8H42.4379ZM54.2567 8.12C52.9607 8.12 51.9687 7.772 51.2807 7.076C50.5927 6.372 50.2487 5.416 50.2487 4.208C50.2487 2.928 50.5807 1.932 51.2447 1.22C51.9167 0.508001 52.9167 0.152 54.2447 0.152C54.7087 0.152 55.1247 0.188 55.4927 0.260001C55.8687 0.324001 56.2207 0.416001 56.5487 0.536001V1.952C55.8687 1.672 55.1407 1.532 54.3647 1.532C53.4847 1.532 52.8527 1.752 52.4687 2.192C52.0847 2.632 51.8927 3.304 51.8927 4.208C51.8927 5.904 52.7247 6.752 54.3887 6.752C54.7647 6.752 55.1367 6.72 55.5047 6.656C55.8727 6.584 56.2247 6.48 56.5607 6.344V7.772C56.2327 7.876 55.8807 7.96 55.5047 8.024C55.1367 8.088 54.7207 8.12 54.2567 8.12Z" fill="black"/>
</g>
<defs>
<clipPath id="clip0_2312_21">
<rect width="57" height="9" fill="white"/>
</clipPath>
</defs>
</svg>
